<svg width="737" height="734" viewBox="0 0 737 734" fill="none" xmlns="http://www.w3.org/2000/svg">
<g opacity="0.6">
<path opacity="0.4" d="M591.75 251.688L175.795 196.244C163.032 194.543 151.307 203.51 149.606 216.273L118.804 447.359C117.103 460.121 126.07 471.847 138.832 473.548L554.788 528.991C567.55 530.692 579.275 521.725 580.976 508.963L611.778 277.876C613.479 265.114 604.512 253.389 591.75 251.688Z" fill="url(#paint0_linear_351_521)" stroke="#10B981" stroke-opacity="0.7" stroke-width="1.36663"/>
<g opacity="0.3">
<path d="M252.825 253.55L201.986 246.774C196.881 246.093 192.191 249.68 191.511 254.785L187.044 288.293C186.364 293.398 189.951 298.088 195.056 298.768L245.895 305.544C251 306.225 255.69 302.638 256.37 297.533L260.836 264.026C261.517 258.921 257.93 254.231 252.825 253.55Z" fill="#10B981"/>
<path d="M201.941 247.112L252.78 253.889C257.698 254.545 261.154 259.063 260.498 263.98L256.032 297.488C255.376 302.406 250.858 305.861 245.94 305.206L195.101 298.429C190.183 297.774 186.728 293.256 187.383 288.338L191.849 254.83C192.505 249.912 197.023 246.457 201.941 247.112Z" stroke="#10B981" stroke-opacity="0.7" stroke-width="0.683317"/>
</g>
<path opacity="0.3" d="M180.422 337.976L457.725 374.938" stroke="#10B981" stroke-opacity="0.7" stroke-width="2.04995"/>
<path opacity="0.2" d="M175.802 372.639L360.671 397.281" stroke="#10B981" stroke-opacity="0.7" stroke-width="2.04995"/>
<g opacity="0.4">
<path d="M507.023 357.99L511.643 323.327C513.184 311.773 526.278 301.759 537.832 303.299L560.941 306.379C572.495 307.919 582.509 321.014 580.969 332.568L576.349 367.231C573.269 390.339 560.174 400.354 535.526 408.828C513.957 394.193 503.943 381.099 507.023 357.99Z" fill="#10B981"/>
<path d="M537.788 303.638L560.896 306.718C566.563 307.473 571.88 311.07 575.594 315.926C579.308 320.783 581.386 326.856 580.631 332.523L576.011 367.185C574.479 378.677 570.464 386.881 563.789 393.27C557.133 399.642 547.806 404.231 535.576 408.448C524.877 401.175 517.078 394.303 512.323 386.41C507.556 378.496 505.83 369.526 507.362 358.035L511.982 323.373C512.738 317.706 516.334 312.389 521.19 308.675C526.047 304.96 532.121 302.882 537.788 303.638Z" stroke="#10B981" stroke-opacity="0.7" stroke-width="0.683317"/>
</g>
<path opacity="0.4" d="M600.893 263.986L186.652 196.928C173.942 194.87 161.971 203.506 159.913 216.216L122.658 446.35C120.601 459.06 129.236 471.031 141.946 473.089L556.188 540.147C568.898 542.205 580.869 533.569 582.927 520.859L620.181 290.725C622.239 278.015 613.603 266.044 600.893 263.986Z" fill="url(#paint1_linear_351_521)" stroke="#10B981" stroke-opacity="0.7" stroke-width="1.36663"/>
<g opacity="0.3">
<path d="M262.049 256.366L211.42 248.17C206.336 247.347 201.547 250.801 200.724 255.885L195.322 289.255C194.499 294.339 197.953 299.127 203.037 299.95L253.667 308.146C258.751 308.969 263.539 305.515 264.362 300.431L269.764 267.062C270.587 261.978 267.133 257.189 262.049 256.366Z" fill="#10B981"/>
<path d="M211.365 248.508L261.995 256.704C266.893 257.497 270.22 262.11 269.427 267.007L264.026 300.377C263.233 305.274 258.62 308.601 253.722 307.809L203.092 299.613C198.194 298.82 194.867 294.207 195.66 289.309L201.062 255.94C201.854 251.042 206.467 247.715 211.365 248.508Z" stroke="#10B981" stroke-opacity="0.7" stroke-width="0.683317"/>
</g>
<path opacity="0.3" d="M187.312 338.734L463.473 383.439" stroke="#10B981" stroke-opacity="0.7" stroke-width="2.04995"/>
<path opacity="0.2" d="M181.724 373.254L365.831 403.058" stroke="#10B981" stroke-opacity="0.7" stroke-width="2.04995"/>
<g opacity="0.4">
<path d="M513.226 367.877L518.814 333.357C520.677 321.85 534.046 312.206 545.553 314.069L568.566 317.795C580.073 319.657 589.717 333.027 587.854 344.533L582.266 379.054C578.541 402.067 565.171 411.711 540.295 419.492C519.144 404.26 509.5 390.89 513.226 367.877Z" fill="#10B981"/>
<path d="M545.499 314.407L568.512 318.132C574.155 319.046 579.37 322.789 582.947 327.748C586.523 332.706 588.431 338.836 587.517 344.479L581.929 378.999C580.077 390.442 575.833 398.532 568.983 404.731C562.151 410.914 552.699 415.241 540.356 419.114C529.865 411.545 522.261 404.457 517.729 396.434C513.185 388.39 511.711 379.375 513.563 367.931L519.151 333.412C520.065 327.768 523.809 322.554 528.767 318.977C533.726 315.4 539.855 313.493 545.499 314.407Z" stroke="#10B981" stroke-opacity="0.7" stroke-width="0.683317"/>
</g>
</g>
<defs>
<linearGradient id="paint0_linear_351_521" x1="152.686" y1="193.164" x2="19185" y2="44234.5" gradientUnits="userSpaceOnUse">
<stop stop-color="#10B981" stop-opacity="0.3"/>
<stop offset="1" stop-color="#059669" stop-opacity="0.1"/>
</linearGradient>
<linearGradient id="paint1_linear_351_521" x1="163.639" y1="193.202" x2="17956.4" y2="44749.7" gradientUnits="userSpaceOnUse">
<stop stop-color="#10B981" stop-opacity="0.3"/>
<stop offset="1" stop-color="#059669" stop-opacity="0.1"/>
</linearGradient>
</defs>
</svg>
