<svg width="1440" height="546" viewBox="0 0 1440 546" fill="none" xmlns="http://www.w3.org/2000/svg">
<g opacity="0.9" filter="url(#filter0_f_351_538)">
<path d="M-0.835938 68.5C-1.60761 72.1406 -2 75.808 -2 79.5C-2 185.539 320.579 271.5 718.5 271.5C1116.42 271.5 1439 185.539 1439 79.5C1439 75.808 1438.61 72.1406 1437.84 68.5H1439V500.5H1432.45C1384.82 406.759 1083.33 334.5 718.5 334.5C353.672 334.5 52.1779 406.759 4.55371 500.5H-2V68.5H-0.835938Z" fill="#22C55E"/>
<path d="M1439 399.358C1326.05 352.214 1126.94 317.358 889.98 305.812C1126.94 295.034 1326.05 262.501 1439 218.499V399.358ZM-2 219.232C111.275 262.862 309.489 295.094 545.128 305.812C309.489 317.294 111.275 351.827 -2 398.573V219.232Z" fill="#F5F5F5"/>
<path d="M1437.47 65C1438.48 69.463 1439 73.9641 1439 78.5C1439 192.271 1116.42 284.5 718.5 284.5C320.579 284.5 -2 192.271 -2 78.5C-2 73.9641 -1.4854 69.4629 -0.475586 65C23.8431 172.478 336.443 257.5 718.5 257.5C1100.56 257.5 1413.16 172.478 1437.47 65Z" fill="#16A34A"/>
<path d="M1437.48 534.5C1438.49 530.037 1439 525.536 1439 521C1439 407.229 1117.09 315 720 315C322.907 315 1 407.229 1 521C1 525.536 1.51377 530.037 2.52148 534.5C26.7897 427.022 338.739 342 720 342C1101.26 342 1413.21 427.022 1437.48 534.5Z" fill="#16A34A"/>
</g>
<defs>
<filter id="filter0_f_351_538" x="-67" y="0" width="1571" height="613" filterUnits="userSpaceOnUse" color-interpolation-filters="sRGB">
<feFlood flood-opacity="0" result="BackgroundImageFix"/>
<feBlend mode="normal" in="SourceGraphic" in2="BackgroundImageFix" result="shape"/>
<feGaussianBlur stdDeviation="32.5" result="effect1_foregroundBlur_351_538"/>
</filter>
</defs>
</svg>
