<svg width="334" height="118" viewBox="0 0 334 118" fill="none" xmlns="http://www.w3.org/2000/svg">
<path d="M327.348 0.722778C328.488 3.80462 330.918 6.23446 334 7.37485C330.918 8.51523 328.488 10.9451 327.348 14.0269C326.207 10.9451 323.778 8.51523 320.696 7.37485C323.778 6.23446 326.207 3.80462 327.348 0.722778Z" fill="#16A34A"/>
<path d="M327.348 104.696C328.488 107.778 330.918 110.207 334 111.348C330.918 112.488 328.488 114.918 327.348 118C326.207 114.918 323.778 112.488 320.696 111.348C323.778 110.207 326.207 107.778 327.348 104.696Z" fill="#16A34A"/>
<path d="M6.65207 0C7.79245 3.08184 10.2223 5.51168 13.3041 6.65207C10.2223 7.79245 7.79245 10.2223 6.65207 13.3041C5.51168 10.2223 3.08184 7.79245 0 6.65207C3.08184 5.51168 5.51168 3.08184 6.65207 0Z" fill="#16A34A"/>
<path d="M6.65207 103.973C7.79245 107.055 10.2223 109.485 13.3041 110.625C10.2223 111.765 7.79245 114.195 6.65207 117.277C5.51168 114.195 3.08184 111.765 0 110.625C3.08184 109.485 5.51168 107.055 6.65207 103.973Z" fill="#16A34A"/>
</svg>
